<?xml version="1.0" encoding="UTF-8"?>
<svg xmlns="http://www.w3.org/2000/svg" version="1.1" viewBox="0 0 149.2 172.2">
  <defs>
    <style>
      .cls-1 {
        fill: #585858;
      }

      .cls-1, .cls-2, .cls-3 {
        stroke-width: 0px;
      }

      .cls-2 {
        fill: #585858;
      }

      .cls-3 {
        fill: #fff;
      }

      .cls-4 {
        display: none;
      }
    </style>
  </defs>
  <g id="Layer_1" data-name="Layer 1" class="cls-4">
    <polygon class="cls-1" points="149.2 129.2 74.6 172.2 0 129.2 0 43.1 74.6 0 149.2 43.1 149.2 129.2"/>
    <path class="cls-3" d="M41.9,84.8l25.1,26.8-12.1-26.8h-13ZM74.6,115.8l14.1-31.1h-28.1l14.1,31.1ZM55,79.6l8.2-15.5h-10.6l-11.6,15.5s13.9,0,13.9,0ZM82.2,111.5l25.1-26.8h-13l-12.1,26.8ZM60.8,79.6h27.5l-8.2-15.5h-11l-8.2,15.5ZM94.2,79.6h13.9l-11.6-15.5h-10.6l8.2,15.5ZM99.8,60l15.5,20.6c.4.5.6,1,.5,1.7,0,.6-.3,1.2-.7,1.6l-38.7,41.2c-.5.5-1.1.8-1.9.8s-1.4-.3-1.9-.8l-38.7-41.2c-.4-.5-.7-1-.7-1.6,0-.6.1-1.2.5-1.7l15.5-20.6c.5-.7,1.2-1,2.1-1h46.4c.9,0,1.6.3,2.1,1Z"/>
  </g>
  <g id="Layer_2" data-name="Layer 2">
    <path class="cls-2" d="M60.8,111.3s0,0,0,0c0,0-.1,0-.2,0-.3,0-.6,0-.9,0h-.6c-1.2,0-2.3-.2-3.5-.3h0c-2.3-.4-4.4-1-6.4-1.9,0,0,0,0,0,0,0,.7,0,1.4-.1,2.2,0,0,0,0,0,0,0,0,0,0,0,0,0,0,0,0,.1,0,4,.9,8,1.4,12,1.5h0c-.1-.5-.3-1.1-.4-1.5ZM98.2,81.8c-.6-1.6-1.4-3.2-2.4-4.6h0c0,0-.5-.6-.5-.6,0,0,0,0,0,0,0-.1-.2-.2-.3-.3-1.7-2.1-3.5-3.7-4.8-4.8,0,0-.2-.1-.3-.2-.2-.2-.4-.3-.6-.4-.1,0-.3-.2-.4-.3-.1,0-.3-.2-.4-.3,0,0-.1,0-.2-.1,0,0-.1,0-.2-.1-.1,0-.3-.2-.3-.2,0,0,0,0,0,0,0,0,0,0,0,0,0,0,0,0,0,0h0c-.4-.3-.9-.5-1.3-.8-2.9-1.6-5.9-2.9-9-3.8-.8-.3-1.7-.5-2.6-.7-1.1-.3-2.1-.5-3.2-.7-1.9-.4-4.4-1.1-7.2-2.1-2.9-.9-5.8-2.1-8.8-3.6-3-1.5-5.7-3.3-8-5.5-2.3-2.1-3.9-4.6-4.7-7.5-.3-1.6-.4-3.2-.4-4.9,0-4.2.8-8.1,2.5-11.6,1.7-3.5,4-6.3,6.8-8.4,2.9-2.1,6.1-3.3,9.6-3.6,2.4.1,4.7.5,7,1.1,3.8,1.4,6.9,3.9,9.4,7.4,2.5,3.5,4,7.7,4.5,12.4,1.5,0,2.9.6,4.2,1.8,1.3,1.2,2.3,2.4,3.1,3.6.3.5.7,1.1,1.1,1.8.2-.9.3-1.8.4-2.7.3-2.7,0-5.3-.8-7.9-.8-2.5-2.1-4.9-3.7-7-2.7-3.3-5.9-5.9-9.6-7.8s-7.7-3.2-12-3.7c-4.2-.6-8.4-.6-12.5,0-3.8.6-7.4,1.8-11,3.5-3.6,1.7-6.6,4.1-9.3,6.9-2.6,2.9-4.3,6.3-5.2,10.2-.3,1.3-.4,2.6-.4,3.9,0,4.2,1.3,8,3.5,11.3,2.2,3.3,5.1,6,8.6,8.2,2.3,1.5,4.8,2.7,7.4,3.5.6.2,1.2.4,1.8.6.4.1.8.2,1.3.4,1.9.6,4.3,1.3,7.2,2.3,2.8,1,5.7,2,8.5,3.2,2.3,1.1,4.4,2.3,6.5,3.5.5.3.9.6,1.4.9.4.3.8.5,1.2.8l.7.5h.2c0,.2.1.2.2.3.7.5,1.4,1.1,2.1,1.6,3.5,2.8,5.6,5.7,6.4,8.9,0,.7.1,1.4.1,2.2,0,4.2-1,7.9-3.1,11.4-2.1,3.4-4.8,6.2-8.3,8.3-2.7,1.6-5.7,2.7-9,3.2l.6,1.8c2.7,0,5.4-.4,8.2-.9.8-.2,1.6-.3,2.5-.5,6-1.4,11.4-3.9,16.2-7.6,2.2-1.8,4.1-3.8,5.6-6.2,1.5-2.4,2.5-5,2.8-7.8.3-2.8,0-5.5-1-8ZM45.1,106.9c-3-2.1-5.5-4.8-7.3-8.1-1.8-3.2-2.7-6.8-2.7-10.6s.6-5.8,1.7-8.5l-6.4-3.5-1.2-.7c-2.1,2.5-3.6,5.3-4.4,8.4-.3,1.3-.5,2.6-.5,3.9h0c0,2.8.7,5.5,2,8,1.3,2.5,2.9,4.7,4.9,6.6,2.5,2.3,5.2,4.1,8.2,5.6,2.2,1.1,4.5,2,6.8,2.7.1-1,.3-2.7.3-2.7h0c-.5-.3-1.1-.7-1.6-1Z"/>
    <path class="cls-2" d="M134.9,114.5c-5.7,0-10.5,0-14.3,0h-15.9v1.2h19.1c1.2,7.1,1,13.6-.8,19.3-1.8,5.8-5,10.2-9.7,13.3,0,0,0,0,0,0-.5.3-1,.5-1.4.8h0c-4.8,2.4-9.9,3-15.5,1.8-5.6-1.2-10.9-3.9-16.2-8.1-5.2-4.2-9.7-9.7-13.5-16.3-2.3-4.2-4-8.4-5.2-12.6,0,0,0,0,0,0,0-.1,0-.3-.1-.5,0,0,0-.1,0-.2,0-.1,0-.3-.1-.4-.1-.5-.3-1-.4-1.5,0-.2,0-.3-.1-.5,0-.1,0-.2,0-.2-.3-1.3-.5-2.6-.7-3.9-.9-6.6-.4-12.5,1.4-17.8,1.8-5.3,4.9-9.4,9.2-12.3h0c.3-.2.6-.3.9-.5-.4-.4-.8-.7-1-.8-2.3,1.3-4.4,2.8-6.5,4.6-6.8,5.9-11.3,13.1-13.6,21.8-.6,2.5-1.1,5-1.3,7.5,0,0,0,0,0,.1,0,.7,0,1.4-.1,2.2,0,.3,0,.6,0,.9,0,5.1.8,10.1,2.6,15.1.8,2.1,1.7,4.1,2.8,6.1,4.5,8,10.9,13.9,19.1,17.9,8,3.7,16.4,5,25.2,3.7,9.2-1.5,17.1-5.5,23.8-12.1,6.2-6.3,10.2-13.9,11.9-22.6.3-1.7.5-3.4.6-5,0-.1,0-.2,0-.3,0-.2,0-.4,0-.6ZM90.2,71.4c0,0-.2-.1-.3-.2-.2-.2-.4-.3-.6-.4-.1,0-.3-.2-.4-.3-.1,0-.3-.2-.4-.3,0,0-.1,0-.2-.1,0,0-.1,0-.2-.1-.1,0-.3-.2-.3-.2,0,0,0,0,0,0,0,0,0,0,0,0,0,0,0,0,0,0h0c-5.3.6-10.2,2-14.8,4.3l1.2.8c4-1.6,8.3-2,12.8-1.2,2.7.5,5.4,1.4,8.1,2.6-1.7-2.1-3.5-3.7-4.8-4.8ZM113.4,75.1c-6.6-3.7-13.6-5.6-20.9-5.7,1.1.8,2.1,1.7,4.6,4.8,1.4,1.6,2.9,4.7,2.9,4.7.4.3.8.5,1.2.8,4.7,3.2,8.9,7.4,12.7,12.6.1-1.3.9-2.2,2.4-2.8,1.5-.6,3.1-1,4.9-1.3s3.4-.3,4.6-.3h1.5c-3.7-5.3-8.3-9.5-13.9-12.7Z"/>
    <path class="cls-2" d="M49.1,109h0c0,.1,0,2.3,0,2.3v.9c0-.3,0-.6,0-.9,0-.7,0-1.4.1-2.2,0,0,0,0,0-.1Z"/>
    <path class="cls-2" d="M75.2,75.5h0c0,0-.1,0-.2-.1h.2Z"/>
  </g>
</svg>